<?xml version="1.0" encoding="UTF-8" standalone="no"?>
<!DOCTYPE svg PUBLIC "-//W3C//DTD SVG 1.1//EN"
 "http://www.w3.org/Graphics/SVG/1.1/DTD/svg11.dtd">
<!-- Generated by graphviz version 2.38.0 (20140413.2041)
 -->
<!-- Title: NeMo.Intf Pages: 1 -->
<svg width="2118pt" height="404pt"
 viewBox="0.00 0.00 2118.44 404.00" xmlns="http://www.w3.org/2000/svg" xmlns:xlink="http://www.w3.org/1999/xlink">
<g id="graph0" class="graph" transform="scale(1 1) rotate(0) translate(4 400)">
<title>NeMo.Intf</title>
<polygon fill="white" stroke="none" points="-4,4 -4,-400 2114.44,-400 2114.44,4 -4,4"/>
<!-- vlan_iptv2 -->
<g id="node1" class="node"><title>vlan_iptv2</title>
<polygon fill="none" stroke="lightgrey" points="79.0615,-108 -0.0205185,-108 -0.0205185,-72 79.0615,-72 79.0615,-108"/>
<text text-anchor="middle" x="39.5205" y="-85.8" font-family="Helvetica,sans-Serif" font-size="14.00">vlan_iptv2</text>
</g>
<!-- eth1 -->
<g id="node38" class="node"><title>eth1</title>
<polygon fill="none" stroke="lightgrey" points="256.521,-36 202.521,-36 202.521,-0 256.521,-0 256.521,-36"/>
<text text-anchor="middle" x="229.521" y="-13.8" font-family="Helvetica,sans-Serif" font-size="14.00">eth1</text>
</g>
<!-- vlan_iptv2&#45;&gt;eth1 -->
<g id="edge1" class="edge"><title>vlan_iptv2&#45;&gt;eth1</title>
<path fill="none" stroke="black" d="M79.3507,-74.3257C112.781,-62.0092 160.16,-44.5537 192.712,-32.5609"/>
<polygon fill="black" stroke="black" points="194.133,-35.7674 202.307,-29.0261 191.713,-29.199 194.133,-35.7674"/>
</g>
<!-- wifi0_ath -->
<g id="node2" class="node"><title>wifi0_ath</title>
<polygon fill="none" stroke="black" points="1255.28,-108 1183.77,-108 1183.77,-72 1255.28,-72 1255.28,-108"/>
<text text-anchor="middle" x="1219.52" y="-85.8" font-family="Helvetica,sans-Serif" font-size="14.00">wifi0_ath</text>
</g>
<!-- Name -->
<g id="node50" class="node"><title>Name</title>
<ellipse fill="none" stroke="black" cx="1187.52" cy="-18" rx="33.8943" ry="18"/>
<text text-anchor="middle" x="1187.52" y="-13.8" font-family="Helvetica,sans-Serif" font-size="14.00">Name</text>
</g>
<!-- wifi0_ath&#45;&gt;Name -->
<g id="edge2" class="edge"><title>wifi0_ath&#45;&gt;Name</title>
<path fill="none" stroke="black" d="M1211.61,-71.6966C1207.91,-63.6095 1203.43,-53.8117 1199.35,-44.8691"/>
<polygon fill="black" stroke="black" points="1202.46,-43.2619 1195.12,-35.6223 1196.09,-46.1722 1202.46,-43.2619"/>
</g>
<!-- atm_iptv2 -->
<g id="node3" class="node"><title>atm_iptv2</title>
<polygon fill="none" stroke="black" points="1136.72,-180 1060.32,-180 1060.32,-144 1136.72,-144 1136.72,-180"/>
<text text-anchor="middle" x="1098.52" y="-157.8" font-family="Helvetica,sans-Serif" font-size="14.00">atm_iptv2</text>
</g>
<!-- dsl0 -->
<g id="node24" class="node"><title>dsl0</title>
<polygon fill="none" stroke="black" points="940.521,-108 886.521,-108 886.521,-72 940.521,-72 940.521,-108"/>
<text text-anchor="middle" x="913.521" y="-85.8" font-family="Helvetica,sans-Serif" font-size="14.00">dsl0</text>
</g>
<!-- atm_iptv2&#45;&gt;dsl0 -->
<g id="edge3" class="edge"><title>atm_iptv2&#45;&gt;dsl0</title>
<path fill="none" stroke="black" d="M1060.19,-146.496C1027.87,-134.266 981.918,-116.88 950.101,-104.841"/>
<polygon fill="black" stroke="black" points="951.302,-101.554 940.711,-101.288 948.825,-108.101 951.302,-101.554"/>
</g>
<!-- atm_iptv2&#45;&gt;Name -->
<g id="edge4" class="edge"><title>atm_iptv2&#45;&gt;Name</title>
<path fill="none" stroke="black" d="M1109.26,-143.871C1124.86,-118.978 1153.9,-72.6491 1171.88,-43.958"/>
<polygon fill="black" stroke="black" points="1174.95,-45.644 1177.3,-35.3119 1169.02,-41.9265 1174.95,-45.644"/>
</g>
<!-- iptv -->
<g id="node4" class="node"><title>iptv</title>
<ellipse fill="none" stroke="lightgrey" cx="1761.52" cy="-378" rx="27" ry="18"/>
<text text-anchor="middle" x="1761.52" y="-373.8" font-family="Helvetica,sans-Serif" font-size="14.00">iptv</text>
</g>
<!-- dhcp_iptv -->
<g id="node40" class="node"><title>dhcp_iptv</title>
<polygon fill="none" stroke="lightgrey" points="1454.45,-324 1378.59,-324 1378.59,-288 1454.45,-288 1454.45,-324"/>
<text text-anchor="middle" x="1416.52" y="-301.8" font-family="Helvetica,sans-Serif" font-size="14.00">dhcp_iptv</text>
</g>
<!-- iptv&#45;&gt;dhcp_iptv -->
<g id="edge5" class="edge"><title>iptv&#45;&gt;dhcp_iptv</title>
<path fill="none" stroke="black" d="M1735.87,-371.796C1678.45,-360.145 1538.79,-331.809 1464.64,-316.762"/>
<polygon fill="black" stroke="black" points="1465.12,-313.289 1454.62,-314.731 1463.73,-320.149 1465.12,-313.289"/>
</g>
<!-- iptv&#45;&gt;Name -->
<g id="edge6" class="edge"><title>iptv&#45;&gt;Name</title>
<path fill="none" stroke="black" d="M1782.75,-366.727C1787.58,-364.458 1792.71,-362.105 1797.52,-360 1933.63,-300.48 2107.52,-383.557 2107.52,-235 2107.52,-235 2107.52,-235 2107.52,-161 2107.52,-120.553 2119.2,-98.3528 2088.52,-72 2023.06,-15.7819 1403.24,-17.0687 1231.47,-18.5235"/>
<polygon fill="black" stroke="black" points="1231.24,-15.0253 1221.27,-18.6146 1231.31,-22.025 1231.24,-15.0253"/>
</g>
<!-- lan -->
<g id="node5" class="node"><title>lan</title>
<polygon fill="none" stroke="black" points="1845.52,-324 1791.52,-324 1791.52,-288 1845.52,-288 1845.52,-324"/>
<text text-anchor="middle" x="1818.52" y="-301.8" font-family="Helvetica,sans-Serif" font-size="14.00">lan</text>
</g>
<!-- bridge -->
<g id="node10" class="node"><title>bridge</title>
<polygon fill="none" stroke="black" points="1808.94,-252 1754.1,-252 1754.1,-216 1808.94,-216 1808.94,-252"/>
<text text-anchor="middle" x="1781.52" y="-229.8" font-family="Helvetica,sans-Serif" font-size="14.00">bridge</text>
</g>
<!-- lan&#45;&gt;bridge -->
<g id="edge7" class="edge"><title>lan&#45;&gt;bridge</title>
<path fill="none" stroke="black" d="M1809.37,-287.697C1805.12,-279.644 1799.96,-269.894 1795.25,-260.982"/>
<polygon fill="black" stroke="black" points="1798.33,-259.31 1790.56,-252.104 1792.14,-262.581 1798.33,-259.31"/>
</g>
<!-- lan&#45;&gt;Name -->
<g id="edge8" class="edge"><title>lan&#45;&gt;Name</title>
<path fill="none" stroke="black" d="M1825.73,-287.706C1842.45,-244.547 1878.19,-131.31 1820.52,-72 1779.54,-29.859 1367.8,-21.1496 1231.26,-19.4153"/>
<polygon fill="black" stroke="black" points="1231.2,-15.9144 1221.16,-19.2934 1231.11,-22.9139 1231.2,-15.9144"/>
</g>
<!-- bridge_aiptv -->
<g id="node6" class="node"><title>bridge_aiptv</title>
<polygon fill="none" stroke="lightgrey" points="1144.8,-252 1052.24,-252 1052.24,-216 1144.8,-216 1144.8,-252"/>
<text text-anchor="middle" x="1098.52" y="-229.8" font-family="Helvetica,sans-Serif" font-size="14.00">bridge_aiptv</text>
</g>
<!-- bridge_aiptv&#45;&gt;atm_iptv2 -->
<g id="edge11" class="edge"><title>bridge_aiptv&#45;&gt;atm_iptv2</title>
<path fill="none" stroke="black" d="M1098.52,-215.697C1098.52,-207.983 1098.52,-198.712 1098.52,-190.112"/>
<polygon fill="black" stroke="black" points="1102.02,-190.104 1098.52,-180.104 1095.02,-190.104 1102.02,-190.104"/>
</g>
<!-- atm_iptv3 -->
<g id="node8" class="node"><title>atm_iptv3</title>
<polygon fill="none" stroke="black" points="1041.72,-180 965.324,-180 965.324,-144 1041.72,-144 1041.72,-180"/>
<text text-anchor="middle" x="1003.52" y="-157.8" font-family="Helvetica,sans-Serif" font-size="14.00">atm_iptv3</text>
</g>
<!-- bridge_aiptv&#45;&gt;atm_iptv3 -->
<g id="edge12" class="edge"><title>bridge_aiptv&#45;&gt;atm_iptv3</title>
<path fill="none" stroke="black" d="M1075.04,-215.697C1062.96,-206.796 1048.07,-195.823 1035,-186.199"/>
<polygon fill="black" stroke="black" points="1036.86,-183.219 1026.73,-180.104 1032.71,-188.854 1036.86,-183.219"/>
</g>
<!-- atm_iptv4 -->
<g id="node18" class="node"><title>atm_iptv4</title>
<polygon fill="none" stroke="black" points="1231.72,-180 1155.32,-180 1155.32,-144 1231.72,-144 1231.72,-180"/>
<text text-anchor="middle" x="1193.52" y="-157.8" font-family="Helvetica,sans-Serif" font-size="14.00">atm_iptv4</text>
</g>
<!-- bridge_aiptv&#45;&gt;atm_iptv4 -->
<g id="edge10" class="edge"><title>bridge_aiptv&#45;&gt;atm_iptv4</title>
<path fill="none" stroke="black" d="M1122,-215.697C1134.08,-206.796 1148.97,-195.823 1162.04,-186.199"/>
<polygon fill="black" stroke="black" points="1164.33,-188.854 1170.31,-180.104 1160.18,-183.219 1164.33,-188.854"/>
</g>
<!-- atm_iptv1 -->
<g id="node29" class="node"><title>atm_iptv1</title>
<polygon fill="none" stroke="black" points="946.717,-180 870.324,-180 870.324,-144 946.717,-144 946.717,-180"/>
<text text-anchor="middle" x="908.521" y="-157.8" font-family="Helvetica,sans-Serif" font-size="14.00">atm_iptv1</text>
</g>
<!-- bridge_aiptv&#45;&gt;atm_iptv1 -->
<g id="edge9" class="edge"><title>bridge_aiptv&#45;&gt;atm_iptv1</title>
<path fill="none" stroke="black" d="M1052.04,-215.876C1023.02,-205.185 985.747,-191.452 956.457,-180.661"/>
<polygon fill="black" stroke="black" points="957.447,-177.296 946.854,-177.123 955.027,-183.864 957.447,-177.296"/>
</g>
<!-- vlan_iptv1 -->
<g id="node7" class="node"><title>vlan_iptv1</title>
<polygon fill="none" stroke="lightgrey" points="269.062,-108 189.979,-108 189.979,-72 269.062,-72 269.062,-108"/>
<text text-anchor="middle" x="229.521" y="-85.8" font-family="Helvetica,sans-Serif" font-size="14.00">vlan_iptv1</text>
</g>
<!-- vlan_iptv1&#45;&gt;eth1 -->
<g id="edge13" class="edge"><title>vlan_iptv1&#45;&gt;eth1</title>
<path fill="none" stroke="black" d="M229.521,-71.6966C229.521,-63.9827 229.521,-54.7125 229.521,-46.1124"/>
<polygon fill="black" stroke="black" points="233.021,-46.1043 229.521,-36.1043 226.021,-46.1044 233.021,-46.1043"/>
</g>
<!-- atm_iptv3&#45;&gt;dsl0 -->
<g id="edge14" class="edge"><title>atm_iptv3&#45;&gt;dsl0</title>
<path fill="none" stroke="black" d="M981.273,-143.697C969.939,-134.881 955.99,-124.032 943.702,-114.474"/>
<polygon fill="black" stroke="black" points="945.554,-111.481 935.512,-108.104 941.257,-117.007 945.554,-111.481"/>
</g>
<!-- atm_iptv3&#45;&gt;Name -->
<g id="edge15" class="edge"><title>atm_iptv3&#45;&gt;Name</title>
<path fill="none" stroke="black" d="M1025.72,-143.871C1059.69,-117.648 1124.49,-67.6395 1160.93,-39.518"/>
<polygon fill="black" stroke="black" points="1163.34,-42.0805 1169.12,-33.2001 1159.07,-36.5389 1163.34,-42.0805"/>
</g>
<!-- bridge_viptv -->
<g id="node9" class="node"><title>bridge_viptv</title>
<polygon fill="none" stroke="lightgrey" points="180.511,-180 88.5299,-180 88.5299,-144 180.511,-144 180.511,-180"/>
<text text-anchor="middle" x="134.521" y="-157.8" font-family="Helvetica,sans-Serif" font-size="14.00">bridge_viptv</text>
</g>
<!-- bridge_viptv&#45;&gt;vlan_iptv2 -->
<g id="edge16" class="edge"><title>bridge_viptv&#45;&gt;vlan_iptv2</title>
<path fill="none" stroke="black" d="M111.037,-143.697C98.9579,-134.796 84.0663,-123.823 71.0047,-114.199"/>
<polygon fill="black" stroke="black" points="72.8603,-111.219 62.7335,-108.104 68.7079,-116.854 72.8603,-111.219"/>
</g>
<!-- bridge_viptv&#45;&gt;vlan_iptv1 -->
<g id="edge17" class="edge"><title>bridge_viptv&#45;&gt;vlan_iptv1</title>
<path fill="none" stroke="black" d="M158.004,-143.697C170.083,-134.796 184.975,-123.823 198.036,-114.199"/>
<polygon fill="black" stroke="black" points="200.333,-116.854 206.307,-108.104 196.181,-111.219 200.333,-116.854"/>
</g>
<!-- wl0 -->
<g id="node37" class="node"><title>wl0</title>
<polygon fill="none" stroke="black" points="1717.52,-180 1663.52,-180 1663.52,-144 1717.52,-144 1717.52,-180"/>
<text text-anchor="middle" x="1690.52" y="-157.8" font-family="Helvetica,sans-Serif" font-size="14.00">wl0</text>
</g>
<!-- bridge&#45;&gt;wl0 -->
<g id="edge19" class="edge"><title>bridge&#45;&gt;wl0</title>
<path fill="none" stroke="black" d="M1759.03,-215.697C1747.57,-206.881 1733.46,-196.032 1721.04,-186.474"/>
<polygon fill="black" stroke="black" points="1722.82,-183.427 1712.76,-180.104 1718.55,-188.976 1722.82,-183.427"/>
</g>
<!-- eth0 -->
<g id="node44" class="node"><title>eth0</title>
<polygon fill="none" stroke="black" points="1789.52,-180 1735.52,-180 1735.52,-144 1789.52,-144 1789.52,-180"/>
<text text-anchor="middle" x="1762.52" y="-157.8" font-family="Helvetica,sans-Serif" font-size="14.00">eth0</text>
</g>
<!-- bridge&#45;&gt;eth0 -->
<g id="edge18" class="edge"><title>bridge&#45;&gt;eth0</title>
<path fill="none" stroke="black" d="M1776.82,-215.697C1774.71,-207.898 1772.16,-198.509 1769.8,-189.829"/>
<polygon fill="black" stroke="black" points="1773.16,-188.838 1767.16,-180.104 1766.4,-190.672 1773.16,-188.838"/>
</g>
<!-- bridge&#45;&gt;Name -->
<g id="edge20" class="edge"><title>bridge&#45;&gt;Name</title>
<path fill="none" stroke="black" d="M1790.76,-215.812C1806.9,-183.186 1835.18,-111.981 1798.52,-72 1760.34,-30.3589 1365.45,-21.3345 1231.61,-19.4662"/>
<polygon fill="black" stroke="black" points="1231.36,-15.9627 1221.32,-19.3296 1231.27,-22.9621 1231.36,-15.9627"/>
</g>
<!-- dhcp_voip -->
<g id="node11" class="node"><title>dhcp_voip</title>
<polygon fill="none" stroke="lightgrey" points="597.348,-252 517.693,-252 517.693,-216 597.348,-216 597.348,-252"/>
<text text-anchor="middle" x="557.521" y="-229.8" font-family="Helvetica,sans-Serif" font-size="14.00">dhcp_voip</text>
</g>
<!-- atm_voip -->
<g id="node42" class="node"><title>atm_voip</title>
<polygon fill="none" stroke="black" points="589.827,-180 517.214,-180 517.214,-144 589.827,-144 589.827,-180"/>
<text text-anchor="middle" x="553.521" y="-157.8" font-family="Helvetica,sans-Serif" font-size="14.00">atm_voip</text>
</g>
<!-- dhcp_voip&#45;&gt;atm_voip -->
<g id="edge21" class="edge"><title>dhcp_voip&#45;&gt;atm_voip</title>
<path fill="none" stroke="black" d="M556.532,-215.697C556.091,-207.983 555.561,-198.712 555.07,-190.112"/>
<polygon fill="black" stroke="black" points="558.563,-189.888 554.498,-180.104 551.574,-190.288 558.563,-189.888"/>
</g>
<!-- data -->
<g id="node12" class="node"><title>data</title>
<polygon fill="none" stroke="black" points="837.521,-396 783.521,-396 783.521,-360 837.521,-360 837.521,-396"/>
<text text-anchor="middle" x="810.521" y="-373.8" font-family="Helvetica,sans-Serif" font-size="14.00">data</text>
</g>
<!-- primdata -->
<g id="node45" class="node"><title>primdata</title>
<polygon fill="none" stroke="lightgrey" points="813.991,-324 743.05,-324 743.05,-288 813.991,-288 813.991,-324"/>
<text text-anchor="middle" x="778.521" y="-301.8" font-family="Helvetica,sans-Serif" font-size="14.00">primdata</text>
</g>
<!-- data&#45;&gt;primdata -->
<g id="edge22" class="edge"><title>data&#45;&gt;primdata</title>
<path fill="none" stroke="black" d="M802.61,-359.697C798.968,-351.728 794.566,-342.1 790.527,-333.264"/>
<polygon fill="black" stroke="black" points="793.68,-331.744 786.34,-324.104 787.314,-334.654 793.68,-331.744"/>
</g>
<!-- data&#45;&gt;Name -->
<g id="edge23" class="edge"><title>data&#45;&gt;Name</title>
<path fill="none" stroke="black" d="M816.996,-359.793C826.347,-333.361 842.521,-280.993 842.521,-235 842.521,-235 842.521,-235 842.521,-161 842.521,-118.496 844.543,-98.8163 877.521,-72 917.676,-39.3464 1068.37,-25.99 1143.86,-21.2575"/>
<polygon fill="black" stroke="black" points="1144.22,-24.7421 1153.99,-20.6458 1143.8,-17.7548 1144.22,-24.7421"/>
</g>
<!-- lo -->
<g id="node13" class="node"><title>lo</title>
<polygon fill="none" stroke="black" points="1937.52,-108 1883.52,-108 1883.52,-72 1937.52,-72 1937.52,-108"/>
<text text-anchor="middle" x="1910.52" y="-85.8" font-family="Helvetica,sans-Serif" font-size="14.00">lo</text>
</g>
<!-- lo&#45;&gt;Name -->
<g id="edge24" class="edge"><title>lo&#45;&gt;Name</title>
<path fill="none" stroke="black" d="M1883.13,-76.2593C1878.66,-74.5844 1874.02,-73.0779 1869.52,-72 1747.38,-42.7171 1361.48,-25.6415 1231.07,-20.5919"/>
<polygon fill="black" stroke="black" points="1231.17,-17.0934 1221.05,-20.2081 1230.9,-24.0883 1231.17,-17.0934"/>
</g>
<!-- dhcpv6_multi -->
<g id="node14" class="node"><title>dhcpv6_multi</title>
<ellipse fill="none" stroke="lightgrey" cx="2017.52" cy="-90" rx="62.4274" ry="18"/>
<text text-anchor="middle" x="2017.52" y="-85.8" font-family="Helvetica,sans-Serif" font-size="14.00">dhcpv6_multi</text>
</g>
<!-- dhcpv6_multi&#45;&gt;Name -->
<g id="edge25" class="edge"><title>dhcpv6_multi&#45;&gt;Name</title>
<path fill="none" stroke="black" d="M1973.43,-77.2506C1964.57,-75.2278 1955.29,-73.3466 1946.52,-72 1676.89,-30.597 1348.35,-21.503 1231.41,-19.5343"/>
<polygon fill="black" stroke="black" points="1231.46,-16.0348 1221.41,-19.3749 1231.35,-23.034 1231.46,-16.0348"/>
</g>
<!-- gretap_wfc2 -->
<g id="node15" class="node"><title>gretap_wfc2</title>
<polygon fill="none" stroke="lightgrey" points="1898.79,-396 1806.25,-396 1806.25,-360 1898.79,-360 1898.79,-396"/>
<text text-anchor="middle" x="1852.52" y="-373.8" font-family="Helvetica,sans-Serif" font-size="14.00">gretap_wfc2</text>
</g>
<!-- swport2 -->
<g id="node16" class="node"><title>swport2</title>
<polygon fill="none" stroke="black" points="1501.04,-108 1436,-108 1436,-72 1501.04,-72 1501.04,-108"/>
<text text-anchor="middle" x="1468.52" y="-85.8" font-family="Helvetica,sans-Serif" font-size="14.00">swport2</text>
</g>
<!-- swport2&#45;&gt;Name -->
<g id="edge26" class="edge"><title>swport2&#45;&gt;Name</title>
<path fill="none" stroke="black" d="M1435.82,-76.5852C1431.06,-74.9474 1426.18,-73.3657 1421.52,-72 1354.86,-52.4764 1275.75,-35.8985 1228.7,-26.7133"/>
<polygon fill="black" stroke="black" points="1229.36,-23.2763 1218.87,-24.8126 1228.03,-30.1488 1229.36,-23.2763"/>
</g>
<!-- swport1 -->
<g id="node17" class="node"><title>swport1</title>
<polygon fill="none" stroke="black" points="1584.04,-108 1519,-108 1519,-72 1584.04,-72 1584.04,-108"/>
<text text-anchor="middle" x="1551.52" y="-85.8" font-family="Helvetica,sans-Serif" font-size="14.00">swport1</text>
</g>
<!-- swport1&#45;&gt;Name -->
<g id="edge27" class="edge"><title>swport1&#45;&gt;Name</title>
<path fill="none" stroke="black" d="M1518.64,-74.5998C1515.92,-73.6439 1513.19,-72.7609 1510.52,-72 1412.63,-44.0785 1293.58,-29.2816 1230.91,-22.9133"/>
<polygon fill="black" stroke="black" points="1230.92,-19.3964 1220.62,-21.8917 1230.23,-26.3622 1230.92,-19.3964"/>
</g>
<!-- atm_iptv4&#45;&gt;dsl0 -->
<g id="edge28" class="edge"><title>atm_iptv4&#45;&gt;dsl0</title>
<path fill="none" stroke="black" d="M1155.14,-146.964C1151.9,-145.915 1148.66,-144.912 1145.52,-144 1077.46,-124.246 996.452,-107.17 950.4,-98.0513"/>
<polygon fill="black" stroke="black" points="951.059,-94.6139 940.572,-96.1212 949.71,-101.483 951.059,-94.6139"/>
</g>
<!-- atm_iptv4&#45;&gt;Name -->
<g id="edge29" class="edge"><title>atm_iptv4&#45;&gt;Name</title>
<path fill="none" stroke="black" d="M1185.63,-143.745C1181.41,-133.577 1176.66,-120.327 1174.52,-108 1170.88,-87.0372 1174.79,-63.1761 1179.26,-45.4407"/>
<polygon fill="black" stroke="black" points="1182.64,-46.3431 1181.89,-35.7745 1175.89,-44.5006 1182.64,-46.3431"/>
</g>
<!-- wl2 -->
<g id="node19" class="node"><title>wl2</title>
<polygon fill="none" stroke="lightgrey" points="1303.52,-180 1249.52,-180 1249.52,-144 1303.52,-144 1303.52,-180"/>
<text text-anchor="middle" x="1276.52" y="-157.8" font-family="Helvetica,sans-Serif" font-size="14.00">wl2</text>
</g>
<!-- wl2&#45;&gt;wifi0_ath -->
<g id="edge30" class="edge"><title>wl2&#45;&gt;wifi0_ath</title>
<path fill="none" stroke="black" d="M1262.43,-143.697C1255.6,-135.305 1247.26,-125.07 1239.76,-115.861"/>
<polygon fill="black" stroke="black" points="1242.48,-113.649 1233.45,-108.104 1237.05,-118.069 1242.48,-113.649"/>
</g>
<!-- wl3 -->
<g id="node20" class="node"><title>wl3</title>
<polygon fill="none" stroke="lightgrey" points="1535.52,-180 1481.52,-180 1481.52,-144 1535.52,-144 1535.52,-180"/>
<text text-anchor="middle" x="1508.52" y="-157.8" font-family="Helvetica,sans-Serif" font-size="14.00">wl3</text>
</g>
<!-- wl3&#45;&gt;wifi0_ath -->
<g id="edge31" class="edge"><title>wl3&#45;&gt;wifi0_ath</title>
<path fill="none" stroke="black" d="M1481.31,-147.22C1478.39,-146.021 1475.42,-144.917 1472.52,-144 1386.04,-116.652 1356.96,-131.611 1264.89,-107.768"/>
<polygon fill="black" stroke="black" points="1265.74,-104.373 1255.18,-105.171 1263.94,-111.135 1265.74,-104.373"/>
</g>
<!-- gretap_wfc1 -->
<g id="node21" class="node"><title>gretap_wfc1</title>
<polygon fill="none" stroke="lightgrey" points="2008.79,-396 1916.25,-396 1916.25,-360 2008.79,-360 2008.79,-396"/>
<text text-anchor="middle" x="1962.52" y="-373.8" font-family="Helvetica,sans-Serif" font-size="14.00">gretap_wfc1</text>
</g>
<!-- ezp -->
<g id="node22" class="node"><title>ezp</title>
<polygon fill="none" stroke="lightgrey" points="1287.52,-252 1233.52,-252 1233.52,-216 1287.52,-216 1287.52,-252"/>
<text text-anchor="middle" x="1260.52" y="-229.8" font-family="Helvetica,sans-Serif" font-size="14.00">ezp</text>
</g>
<!-- ezp&#45;&gt;wl2 -->
<g id="edge32" class="edge"><title>ezp&#45;&gt;wl2</title>
<path fill="none" stroke="black" d="M1264.48,-215.697C1266.24,-207.983 1268.36,-198.712 1270.32,-190.112"/>
<polygon fill="black" stroke="black" points="1273.79,-190.633 1272.61,-180.104 1266.97,-189.073 1273.79,-190.633"/>
</g>
<!-- vlan_data -->
<g id="node23" class="node"><title>vlan_data</title>
<polygon fill="none" stroke="black" points="363.738,-108 287.303,-108 287.303,-72 363.738,-72 363.738,-108"/>
<text text-anchor="middle" x="325.521" y="-85.8" font-family="Helvetica,sans-Serif" font-size="14.00">vlan_data</text>
</g>
<!-- vlan_data&#45;&gt;eth1 -->
<g id="edge33" class="edge"><title>vlan_data&#45;&gt;eth1</title>
<path fill="none" stroke="black" d="M301.79,-71.6966C289.584,-62.796 274.535,-51.8232 261.336,-42.1989"/>
<polygon fill="black" stroke="black" points="263.12,-39.1681 252.978,-36.1043 258.996,-44.8241 263.12,-39.1681"/>
</g>
<!-- vlan_data&#45;&gt;Name -->
<g id="edge34" class="edge"><title>vlan_data&#45;&gt;Name</title>
<path fill="none" stroke="black" d="M363.739,-74.1814C366.683,-73.3465 369.633,-72.6035 372.521,-72 521.954,-40.7736 996.625,-24.5803 1143.67,-20.2235"/>
<polygon fill="black" stroke="black" points="1143.78,-23.7216 1153.68,-19.9302 1143.58,-16.7246 1143.78,-23.7216"/>
</g>
<!-- dsl0&#45;&gt;Name -->
<g id="edge35" class="edge"><title>dsl0&#45;&gt;Name</title>
<path fill="none" stroke="black" d="M940.794,-82.0322C989.473,-69.5961 1091.49,-43.5338 1147.9,-29.1218"/>
<polygon fill="black" stroke="black" points="1149.06,-32.4387 1157.88,-26.5723 1147.33,-25.6565 1149.06,-32.4387"/>
</g>
<!-- wfc -->
<g id="node25" class="node"><title>wfc</title>
<polygon fill="none" stroke="lightgrey" points="1359.52,-252 1305.52,-252 1305.52,-216 1359.52,-216 1359.52,-252"/>
<text text-anchor="middle" x="1332.52" y="-229.8" font-family="Helvetica,sans-Serif" font-size="14.00">wfc</text>
</g>
<!-- wl1 -->
<g id="node30" class="node"><title>wl1</title>
<polygon fill="none" stroke="lightgrey" points="1375.52,-180 1321.52,-180 1321.52,-144 1375.52,-144 1375.52,-180"/>
<text text-anchor="middle" x="1348.52" y="-157.8" font-family="Helvetica,sans-Serif" font-size="14.00">wl1</text>
</g>
<!-- wfc&#45;&gt;wl1 -->
<g id="edge36" class="edge"><title>wfc&#45;&gt;wl1</title>
<path fill="none" stroke="black" d="M1336.48,-215.697C1338.24,-207.983 1340.36,-198.712 1342.32,-190.112"/>
<polygon fill="black" stroke="black" points="1345.79,-190.633 1344.61,-180.104 1338.97,-189.073 1345.79,-190.633"/>
</g>
<!-- vlan_multi -->
<g id="node26" class="node"><title>vlan_multi</title>
<polygon fill="none" stroke="black" points="461.048,-108 381.993,-108 381.993,-72 461.048,-72 461.048,-108"/>
<text text-anchor="middle" x="421.521" y="-85.8" font-family="Helvetica,sans-Serif" font-size="14.00">vlan_multi</text>
</g>
<!-- vlan_multi&#45;&gt;eth1 -->
<g id="edge37" class="edge"><title>vlan_multi&#45;&gt;eth1</title>
<path fill="none" stroke="black" d="M381.738,-74.496C347.794,-62.1206 299.372,-44.4667 266.315,-32.4147"/>
<polygon fill="black" stroke="black" points="267.177,-29.0034 256.583,-28.8664 264.779,-35.58 267.177,-29.0034"/>
</g>
<!-- vlan_multi&#45;&gt;Name -->
<g id="edge38" class="edge"><title>vlan_multi&#45;&gt;Name</title>
<path fill="none" stroke="black" d="M461.066,-75.4108C465.893,-74.091 470.791,-72.9079 475.521,-72 724.935,-24.1239 1031.19,-18.9334 1143.54,-18.7692"/>
<polygon fill="black" stroke="black" points="1143.8,-22.2693 1153.8,-18.7677 1143.8,-15.2693 1143.8,-22.2693"/>
</g>
<!-- ppp_data -->
<g id="node27" class="node"><title>ppp_data</title>
<polygon fill="none" stroke="black" points="814.914,-252 740.127,-252 740.127,-216 814.914,-216 814.914,-252"/>
<text text-anchor="middle" x="777.521" y="-229.8" font-family="Helvetica,sans-Serif" font-size="14.00">ppp_data</text>
</g>
<!-- atm_data -->
<g id="node49" class="node"><title>atm_data</title>
<polygon fill="none" stroke="black" points="814.894,-180 740.148,-180 740.148,-144 814.894,-144 814.894,-180"/>
<text text-anchor="middle" x="777.521" y="-157.8" font-family="Helvetica,sans-Serif" font-size="14.00">atm_data</text>
</g>
<!-- ppp_data&#45;&gt;atm_data -->
<g id="edge39" class="edge"><title>ppp_data&#45;&gt;atm_data</title>
<path fill="none" stroke="black" d="M777.521,-215.697C777.521,-207.983 777.521,-198.712 777.521,-190.112"/>
<polygon fill="black" stroke="black" points="781.021,-190.104 777.521,-180.104 774.021,-190.104 781.021,-190.104"/>
</g>
<!-- ppp_data&#45;&gt;Name -->
<g id="edge40" class="edge"><title>ppp_data&#45;&gt;Name</title>
<path fill="none" stroke="black" d="M740.094,-230.366C706.72,-225.805 659.67,-213.433 636.521,-180 627.412,-166.846 629.26,-158.258 636.521,-144 661.209,-95.5181 684.851,-91.8139 735.521,-72 809.446,-43.092 1045.77,-26.9127 1144.03,-21.2895"/>
<polygon fill="black" stroke="black" points="1144.42,-24.7732 1154.21,-20.7167 1144.03,-17.7843 1144.42,-24.7732"/>
</g>
<!-- bridge_vmulti -->
<g id="node28" class="node"><title>bridge_vmulti</title>
<polygon fill="none" stroke="lightgrey" points="461.283,-180 361.758,-180 361.758,-144 461.283,-144 461.283,-180"/>
<text text-anchor="middle" x="411.521" y="-157.8" font-family="Helvetica,sans-Serif" font-size="14.00">bridge_vmulti</text>
</g>
<!-- bridge_vmulti&#45;&gt;vlan_multi -->
<g id="edge41" class="edge"><title>bridge_vmulti&#45;&gt;vlan_multi</title>
<path fill="none" stroke="black" d="M413.992,-143.697C415.094,-135.983 416.419,-126.712 417.647,-118.112"/>
<polygon fill="black" stroke="black" points="421.128,-118.499 419.077,-108.104 414.198,-117.509 421.128,-118.499"/>
</g>
<!-- atm_iptv1&#45;&gt;dsl0 -->
<g id="edge42" class="edge"><title>atm_iptv1&#45;&gt;dsl0</title>
<path fill="none" stroke="black" d="M909.756,-143.697C910.307,-135.983 910.97,-126.712 911.584,-118.112"/>
<polygon fill="black" stroke="black" points="915.077,-118.328 912.299,-108.104 908.095,-117.83 915.077,-118.328"/>
</g>
<!-- atm_iptv1&#45;&gt;Name -->
<g id="edge43" class="edge"><title>atm_iptv1&#45;&gt;Name</title>
<path fill="none" stroke="black" d="M938.014,-143.901C970.207,-125.449 1023.45,-95.5454 1070.52,-72 1097.69,-58.4087 1129.07,-44.2739 1152.5,-34.0228"/>
<polygon fill="black" stroke="black" points="1153.92,-37.2202 1161.69,-30.0185 1151.12,-30.8023 1153.92,-37.2202"/>
</g>
<!-- wl1&#45;&gt;wifi0_ath -->
<g id="edge44" class="edge"><title>wl1&#45;&gt;wifi0_ath</title>
<path fill="none" stroke="black" d="M1321.48,-146.326C1303.67,-136.661 1280.02,-123.831 1259.99,-112.96"/>
<polygon fill="black" stroke="black" points="1261.53,-109.815 1251.07,-108.122 1258.19,-115.968 1261.53,-109.815"/>
</g>
<!-- wfc_vlan -->
<g id="node31" class="node"><title>wfc_vlan</title>
<polygon fill="none" stroke="lightgrey" points="1463.99,-180 1393.05,-180 1393.05,-144 1463.99,-144 1463.99,-180"/>
<text text-anchor="middle" x="1428.52" y="-157.8" font-family="Helvetica,sans-Serif" font-size="14.00">wfc_vlan</text>
</g>
<!-- swport4 -->
<g id="node32" class="node"><title>swport4</title>
<polygon fill="none" stroke="black" points="1667.04,-108 1602,-108 1602,-72 1667.04,-72 1667.04,-108"/>
<text text-anchor="middle" x="1634.52" y="-85.8" font-family="Helvetica,sans-Serif" font-size="14.00">swport4</text>
</g>
<!-- swport4&#45;&gt;Name -->
<g id="edge45" class="edge"><title>swport4&#45;&gt;Name</title>
<path fill="none" stroke="black" d="M1601.66,-74.5025C1598.94,-73.5685 1596.2,-72.717 1593.52,-72 1464.48,-37.4754 1306.13,-25.0786 1231.02,-20.9265"/>
<polygon fill="black" stroke="black" points="1231.16,-17.429 1220.99,-20.3939 1230.79,-24.4191 1231.16,-17.429"/>
</g>
<!-- bridge_wfcsec -->
<g id="node33" class="node"><title>bridge_wfcsec</title>
<polygon fill="none" stroke="lightgrey" points="1661.51,-252 1555.53,-252 1555.53,-216 1661.51,-216 1661.51,-252"/>
<text text-anchor="middle" x="1608.52" y="-229.8" font-family="Helvetica,sans-Serif" font-size="14.00">bridge_wfcsec</text>
</g>
<!-- bridge_wfcsec&#45;&gt;wl3 -->
<g id="edge47" class="edge"><title>bridge_wfcsec&#45;&gt;wl3</title>
<path fill="none" stroke="black" d="M1584.06,-215.876C1571.22,-206.893 1555.32,-195.763 1541.43,-186.034"/>
<polygon fill="black" stroke="black" points="1543.28,-183.057 1533.08,-180.19 1539.26,-188.792 1543.28,-183.057"/>
</g>
<!-- wfcsec_vlan -->
<g id="node34" class="node"><title>wfcsec_vlan</title>
<polygon fill="none" stroke="lightgrey" points="1645.78,-180 1553.27,-180 1553.27,-144 1645.78,-144 1645.78,-180"/>
<text text-anchor="middle" x="1599.52" y="-157.8" font-family="Helvetica,sans-Serif" font-size="14.00">wfcsec_vlan</text>
</g>
<!-- bridge_wfcsec&#45;&gt;wfcsec_vlan -->
<g id="edge46" class="edge"><title>bridge_wfcsec&#45;&gt;wfcsec_vlan</title>
<path fill="none" stroke="black" d="M1606.3,-215.697C1605.3,-207.983 1604.11,-198.712 1603.01,-190.112"/>
<polygon fill="black" stroke="black" points="1606.47,-189.576 1601.72,-180.104 1599.52,-190.469 1606.47,-189.576"/>
</g>
<!-- wfcsec -->
<g id="node35" class="node"><title>wfcsec</title>
<polygon fill="none" stroke="lightgrey" points="1537.81,-252 1479.23,-252 1479.23,-216 1537.81,-216 1537.81,-252"/>
<text text-anchor="middle" x="1508.52" y="-229.8" font-family="Helvetica,sans-Serif" font-size="14.00">wfcsec</text>
</g>
<!-- wfcsec&#45;&gt;wl3 -->
<g id="edge48" class="edge"><title>wfcsec&#45;&gt;wl3</title>
<path fill="none" stroke="black" d="M1508.52,-215.697C1508.52,-207.983 1508.52,-198.712 1508.52,-190.112"/>
<polygon fill="black" stroke="black" points="1512.02,-190.104 1508.52,-180.104 1505.02,-190.104 1512.02,-190.104"/>
</g>
<!-- vlan_voip -->
<g id="node36" class="node"><title>vlan_voip</title>
<polygon fill="none" stroke="lightgrey" points="172.172,-108 96.869,-108 96.869,-72 172.172,-72 172.172,-108"/>
<text text-anchor="middle" x="134.521" y="-85.8" font-family="Helvetica,sans-Serif" font-size="14.00">vlan_voip</text>
</g>
<!-- vlan_voip&#45;&gt;eth1 -->
<g id="edge49" class="edge"><title>vlan_voip&#45;&gt;eth1</title>
<path fill="none" stroke="black" d="M158.004,-71.6966C170.083,-62.796 184.975,-51.8232 198.036,-42.1989"/>
<polygon fill="black" stroke="black" points="200.333,-44.8541 206.307,-36.1043 196.181,-39.2187 200.333,-44.8541"/>
</g>
<!-- wl0&#45;&gt;wifi0_ath -->
<g id="edge50" class="edge"><title>wl0&#45;&gt;wifi0_ath</title>
<path fill="none" stroke="black" d="M1663.38,-146.982C1660.44,-145.829 1657.45,-144.801 1654.52,-144 1489.72,-98.9894 1436.13,-145.327 1265.42,-107.808"/>
<polygon fill="black" stroke="black" points="1266.14,-104.382 1255.61,-105.589 1264.59,-111.21 1266.14,-104.382"/>
</g>
<!-- wl0&#45;&gt;Name -->
<g id="edge51" class="edge"><title>wl0&#45;&gt;Name</title>
<path fill="none" stroke="black" d="M1663.32,-147.176C1660.4,-145.985 1657.43,-144.896 1654.52,-144 1556.48,-113.792 1518.56,-153.313 1426.52,-108 1405.65,-97.7242 1408.85,-83.3185 1388.52,-72 1338.27,-44.0201 1272.7,-30.3374 1230.34,-23.9942"/>
<polygon fill="black" stroke="black" points="1230.76,-20.5178 1220.36,-22.5709 1229.77,-27.4477 1230.76,-20.5178"/>
</g>
<!-- atm_multi -->
<g id="node39" class="node"><title>atm_multi</title>
<polygon fill="none" stroke="black" points="721.704,-180 645.337,-180 645.337,-144 721.704,-144 721.704,-180"/>
<text text-anchor="middle" x="683.521" y="-157.8" font-family="Helvetica,sans-Serif" font-size="14.00">atm_multi</text>
</g>
<!-- atm_multi&#45;&gt;dsl0 -->
<g id="edge52" class="edge"><title>atm_multi&#45;&gt;dsl0</title>
<path fill="none" stroke="black" d="M721.706,-147.255C725.017,-146.13 728.323,-145.031 731.521,-144 781.337,-127.939 839.503,-111.378 876.416,-101.137"/>
<polygon fill="black" stroke="black" points="877.533,-104.459 886.239,-98.4215 875.668,-97.7123 877.533,-104.459"/>
</g>
<!-- atm_multi&#45;&gt;Name -->
<g id="edge53" class="edge"><title>atm_multi&#45;&gt;Name</title>
<path fill="none" stroke="black" d="M698.918,-143.948C718.788,-123.16 755.472,-88.7376 794.521,-72 856.759,-45.3225 1055.39,-28.3496 1144.06,-21.9188"/>
<polygon fill="black" stroke="black" points="1144.34,-25.4082 1154.06,-21.2046 1143.84,-18.426 1144.34,-25.4082"/>
</g>
<!-- dhcp_iptv&#45;&gt;bridge_aiptv -->
<g id="edge54" class="edge"><title>dhcp_iptv&#45;&gt;bridge_aiptv</title>
<path fill="none" stroke="black" d="M1378.48,-296.626C1322.93,-284.397 1219.23,-261.571 1154.83,-247.394"/>
<polygon fill="black" stroke="black" points="1155.36,-243.928 1144.84,-245.196 1153.85,-250.764 1155.36,-243.928"/>
</g>
<!-- voip -->
<g id="node41" class="node"><title>voip</title>
<polygon fill="none" stroke="black" points="550.521,-324 496.521,-324 496.521,-288 550.521,-288 550.521,-324"/>
<text text-anchor="middle" x="523.521" y="-301.8" font-family="Helvetica,sans-Serif" font-size="14.00">voip</text>
</g>
<!-- voip&#45;&gt;dhcp_voip -->
<g id="edge55" class="edge"><title>voip&#45;&gt;dhcp_voip</title>
<path fill="none" stroke="black" d="M531.925,-287.697C535.795,-279.728 540.472,-270.1 544.764,-261.264"/>
<polygon fill="black" stroke="black" points="547.992,-262.629 549.213,-252.104 541.695,-259.57 547.992,-262.629"/>
</g>
<!-- voip&#45;&gt;Name -->
<g id="edge56" class="edge"><title>voip&#45;&gt;Name</title>
<path fill="none" stroke="black" d="M517.223,-287.925C507.136,-257.829 490.256,-193.814 508.521,-144 522.959,-104.623 532.256,-91.2457 569.521,-72 669.694,-20.2635 1019.47,-17.7036 1143.5,-18.4861"/>
<polygon fill="black" stroke="black" points="1143.73,-21.9879 1153.75,-18.5619 1143.78,-14.988 1143.73,-21.9879"/>
</g>
<!-- atm_voip&#45;&gt;dsl0 -->
<g id="edge57" class="edge"><title>atm_voip&#45;&gt;dsl0</title>
<path fill="none" stroke="black" d="M589.862,-153.45C604.367,-150.465 621.226,-147.029 636.521,-144 722.298,-127.01 823.207,-107.931 876.387,-97.9465"/>
<polygon fill="black" stroke="black" points="877.185,-101.358 886.368,-96.0742 875.894,-94.478 877.185,-101.358"/>
</g>
<!-- atm_voip&#45;&gt;Name -->
<g id="edge58" class="edge"><title>atm_voip&#45;&gt;Name</title>
<path fill="none" stroke="black" d="M557.873,-143.894C564.159,-123.051 577.935,-88.5707 603.521,-72 648.558,-42.8317 1015.48,-25.7607 1143.59,-20.644"/>
<polygon fill="black" stroke="black" points="1143.96,-24.1322 1153.81,-20.2408 1143.68,-17.1376 1143.96,-24.1322"/>
</g>
<!-- bridge_wfc -->
<g id="node43" class="node"><title>bridge_wfc</title>
<polygon fill="none" stroke="lightgrey" points="1461.22,-252 1377.82,-252 1377.82,-216 1461.22,-216 1461.22,-252"/>
<text text-anchor="middle" x="1419.52" y="-229.8" font-family="Helvetica,sans-Serif" font-size="14.00">bridge_wfc</text>
</g>
<!-- bridge_wfc&#45;&gt;wl1 -->
<g id="edge59" class="edge"><title>bridge_wfc&#45;&gt;wl1</title>
<path fill="none" stroke="black" d="M1401.97,-215.697C1393.29,-207.135 1382.66,-196.656 1373.17,-187.304"/>
<polygon fill="black" stroke="black" points="1375.45,-184.633 1365.87,-180.104 1370.53,-189.617 1375.45,-184.633"/>
</g>
<!-- bridge_wfc&#45;&gt;wfc_vlan -->
<g id="edge60" class="edge"><title>bridge_wfc&#45;&gt;wfc_vlan</title>
<path fill="none" stroke="black" d="M1421.75,-215.697C1422.74,-207.983 1423.93,-198.712 1425.03,-190.112"/>
<polygon fill="black" stroke="black" points="1428.52,-190.469 1426.32,-180.104 1421.57,-189.576 1428.52,-190.469"/>
</g>
<!-- eth0&#45;&gt;swport2 -->
<g id="edge61" class="edge"><title>eth0&#45;&gt;swport2</title>
<path fill="none" stroke="black" d="M1735.32,-147.2C1732.39,-146.004 1729.42,-144.907 1726.52,-144 1636.21,-115.788 1605.49,-133.657 1511.06,-108.096"/>
<polygon fill="black" stroke="black" points="1511.98,-104.72 1501.41,-105.395 1510.09,-111.461 1511.98,-104.72"/>
</g>
<!-- eth0&#45;&gt;swport1 -->
<g id="edge62" class="edge"><title>eth0&#45;&gt;swport1</title>
<path fill="none" stroke="black" d="M1735.22,-147.49C1732.31,-146.238 1729.38,-145.048 1726.52,-144 1671.57,-123.828 1652.81,-127.402 1593.86,-108.218"/>
<polygon fill="black" stroke="black" points="1594.64,-104.788 1584.05,-104.937 1592.42,-111.426 1594.64,-104.788"/>
</g>
<!-- eth0&#45;&gt;swport4 -->
<g id="edge64" class="edge"><title>eth0&#45;&gt;swport4</title>
<path fill="none" stroke="black" d="M1735.38,-146.155C1717.68,-136.48 1694.29,-123.688 1674.49,-112.859"/>
<polygon fill="black" stroke="black" points="1676.13,-109.767 1665.68,-108.04 1672.77,-115.909 1676.13,-109.767"/>
</g>
<!-- swport3 -->
<g id="node47" class="node"><title>swport3</title>
<polygon fill="none" stroke="black" points="1789.04,-108 1724,-108 1724,-72 1789.04,-72 1789.04,-108"/>
<text text-anchor="middle" x="1756.52" y="-85.8" font-family="Helvetica,sans-Serif" font-size="14.00">swport3</text>
</g>
<!-- eth0&#45;&gt;swport3 -->
<g id="edge63" class="edge"><title>eth0&#45;&gt;swport3</title>
<path fill="none" stroke="black" d="M1761.04,-143.697C1760.38,-135.983 1759.58,-126.712 1758.84,-118.112"/>
<polygon fill="black" stroke="black" points="1762.33,-117.769 1757.99,-108.104 1755.35,-118.367 1762.33,-117.769"/>
</g>
<!-- eth0&#45;&gt;Name -->
<g id="edge65" class="edge"><title>eth0&#45;&gt;Name</title>
<path fill="none" stroke="black" d="M1746.95,-143.66C1724.63,-118.995 1685.25,-76.2749 1676.52,-72 1598.66,-33.8854 1336.73,-22.891 1231.67,-19.9729"/>
<polygon fill="black" stroke="black" points="1231.5,-16.4673 1221.41,-19.7001 1231.32,-23.4649 1231.5,-16.4673"/>
</g>
<!-- primdata&#45;&gt;ppp_data -->
<g id="edge66" class="edge"><title>primdata&#45;&gt;ppp_data</title>
<path fill="none" stroke="black" d="M778.273,-287.697C778.163,-279.983 778.031,-270.712 777.908,-262.112"/>
<polygon fill="black" stroke="black" points="781.407,-262.053 777.765,-252.104 774.408,-262.153 781.407,-262.053"/>
</g>
<!-- wwan -->
<g id="node46" class="node"><title>wwan</title>
<polygon fill="none" stroke="lightgrey" points="2080.52,-396 2026.52,-396 2026.52,-360 2080.52,-360 2080.52,-396"/>
<text text-anchor="middle" x="2053.52" y="-373.8" font-family="Helvetica,sans-Serif" font-size="14.00">wwan</text>
</g>
<!-- swport3&#45;&gt;Name -->
<g id="edge67" class="edge"><title>swport3&#45;&gt;Name</title>
<path fill="none" stroke="black" d="M1723.96,-76.062C1719.17,-74.5009 1714.26,-73.08 1709.52,-72 1535.46,-32.3215 1321.96,-22.3332 1231.43,-19.8307"/>
<polygon fill="black" stroke="black" points="1231.35,-16.3276 1221.27,-19.5672 1231.17,-23.3252 1231.35,-16.3276"/>
</g>
<!-- dhcp_multi -->
<g id="node48" class="node"><title>dhcp_multi</title>
<ellipse fill="none" stroke="lightgrey" cx="1326.52" cy="-90" rx="52.7468" ry="18"/>
<text text-anchor="middle" x="1326.52" y="-85.8" font-family="Helvetica,sans-Serif" font-size="14.00">dhcp_multi</text>
</g>
<!-- dhcp_multi&#45;&gt;Name -->
<g id="edge68" class="edge"><title>dhcp_multi&#45;&gt;Name</title>
<path fill="none" stroke="black" d="M1298.06,-74.6655C1275.48,-63.2952 1243.9,-47.3915 1220.27,-35.4933"/>
<polygon fill="black" stroke="black" points="1221.83,-32.3587 1211.32,-30.9868 1218.68,-38.6107 1221.83,-32.3587"/>
</g>
<!-- atm_data&#45;&gt;dsl0 -->
<g id="edge69" class="edge"><title>atm_data&#45;&gt;dsl0</title>
<path fill="none" stroke="black" d="M810.79,-143.876C830.839,-133.557 856.394,-120.403 877,-109.797"/>
<polygon fill="black" stroke="black" points="878.792,-112.811 886.082,-105.123 875.589,-106.587 878.792,-112.811"/>
</g>
<!-- atm_data&#45;&gt;Name -->
<g id="edge70" class="edge"><title>atm_data&#45;&gt;Name</title>
<path fill="none" stroke="black" d="M782.333,-143.755C789.058,-123.104 803.361,-89.1572 828.521,-72 879.112,-37.4994 1059.87,-24.8345 1143.94,-20.7368"/>
<polygon fill="black" stroke="black" points="1144.12,-24.2326 1153.94,-20.2678 1143.79,-17.2403 1144.12,-24.2326"/>
</g>
</g>
</svg>
